<mxfile host="Electron" agent="Mozilla/5.0 (Windows NT 10.0; Win64; x64) AppleWebKit/537.36 (KHTML, like Gecko) draw.io/24.7.8 Chrome/128.0.6613.36 Electron/32.0.1 Safari/537.36" version="24.7.8">
  <diagram name="Page-1" id="e7e014a7-5840-1c2e-5031-d8a46d1fe8dd">
    <mxGraphModel dx="1434" dy="836" grid="1" gridSize="10" guides="1" tooltips="1" connect="1" arrows="1" fold="1" page="1" pageScale="1" pageWidth="1169" pageHeight="826" background="none" math="0" shadow="0">
      <root>
        <mxCell id="0" />
        <mxCell id="1" parent="0" />
        <mxCell id="2" value="Usuario(Empresa)" style="swimlane;whiteSpace=wrap" parent="1" vertex="1">
          <mxGeometry x="164.5" y="128" width="280" height="570" as="geometry" />
        </mxCell>
        <mxCell id="VGA2arO_mNmVDDyMSiYh-42" style="edgeStyle=orthogonalEdgeStyle;rounded=0;orthogonalLoop=1;jettySize=auto;html=1;entryX=0.5;entryY=0;entryDx=0;entryDy=0;strokeColor=#ff0000;" edge="1" parent="2" source="5" target="VGA2arO_mNmVDDyMSiYh-41">
          <mxGeometry relative="1" as="geometry" />
        </mxCell>
        <mxCell id="5" value="" style="ellipse;shape=startState;fillColor=#000000;strokeColor=#ff0000;" parent="2" vertex="1">
          <mxGeometry x="125" y="40" width="30" height="30" as="geometry" />
        </mxCell>
        <mxCell id="VGA2arO_mNmVDDyMSiYh-41" value="Acionamento da requisição de dados do banco de dados" style="rounded=0;whiteSpace=wrap;html=1;" vertex="1" parent="2">
          <mxGeometry x="80" y="112" width="120" height="60" as="geometry" />
        </mxCell>
        <mxCell id="VGA2arO_mNmVDDyMSiYh-52" style="edgeStyle=orthogonalEdgeStyle;rounded=0;orthogonalLoop=1;jettySize=auto;html=1;entryX=0.5;entryY=0;entryDx=0;entryDy=0;strokeColor=#ff0000;" edge="1" parent="2" source="VGA2arO_mNmVDDyMSiYh-49" target="VGA2arO_mNmVDDyMSiYh-51">
          <mxGeometry relative="1" as="geometry" />
        </mxCell>
        <mxCell id="VGA2arO_mNmVDDyMSiYh-49" value="Download das tabelas" style="rounded=0;whiteSpace=wrap;html=1;" vertex="1" parent="2">
          <mxGeometry x="80" y="352" width="120" height="60" as="geometry" />
        </mxCell>
        <mxCell id="VGA2arO_mNmVDDyMSiYh-51" value="" style="ellipse;html=1;shape=endState;fillColor=#000000;strokeColor=#ff0000;" vertex="1" parent="2">
          <mxGeometry x="125.5" y="472" width="30" height="30" as="geometry" />
        </mxCell>
        <mxCell id="3" value="Sistema" style="swimlane;whiteSpace=wrap" parent="1" vertex="1">
          <mxGeometry x="444.5" y="128" width="280" height="570" as="geometry" />
        </mxCell>
        <mxCell id="VGA2arO_mNmVDDyMSiYh-43" value="Exportação das tabelas do banco de dados" style="rounded=0;whiteSpace=wrap;html=1;" vertex="1" parent="3">
          <mxGeometry x="80.5" y="162" width="120" height="60" as="geometry" />
        </mxCell>
        <mxCell id="VGA2arO_mNmVDDyMSiYh-47" value="Exibição das tabelas para download" style="rounded=0;whiteSpace=wrap;html=1;" vertex="1" parent="3">
          <mxGeometry x="80" y="285" width="120" height="60" as="geometry" />
        </mxCell>
        <mxCell id="4" value="Banco de Dados" style="swimlane;whiteSpace=wrap" parent="1" vertex="1">
          <mxGeometry x="724.5" y="128" width="280" height="570" as="geometry" />
        </mxCell>
        <mxCell id="VGA2arO_mNmVDDyMSiYh-45" value="Criação das tableas com as informações coletadas" style="rounded=0;whiteSpace=wrap;html=1;" vertex="1" parent="4">
          <mxGeometry x="95.5" y="212" width="120" height="60" as="geometry" />
        </mxCell>
        <mxCell id="VGA2arO_mNmVDDyMSiYh-44" style="edgeStyle=orthogonalEdgeStyle;rounded=0;orthogonalLoop=1;jettySize=auto;html=1;entryX=0.5;entryY=0;entryDx=0;entryDy=0;" edge="1" parent="1" source="VGA2arO_mNmVDDyMSiYh-41" target="VGA2arO_mNmVDDyMSiYh-43">
          <mxGeometry relative="1" as="geometry" />
        </mxCell>
        <mxCell id="VGA2arO_mNmVDDyMSiYh-46" style="edgeStyle=orthogonalEdgeStyle;rounded=0;orthogonalLoop=1;jettySize=auto;html=1;entryX=0.5;entryY=0;entryDx=0;entryDy=0;" edge="1" parent="1" source="VGA2arO_mNmVDDyMSiYh-43" target="VGA2arO_mNmVDDyMSiYh-45">
          <mxGeometry relative="1" as="geometry" />
        </mxCell>
        <mxCell id="VGA2arO_mNmVDDyMSiYh-48" style="edgeStyle=orthogonalEdgeStyle;rounded=0;orthogonalLoop=1;jettySize=auto;html=1;" edge="1" parent="1" source="VGA2arO_mNmVDDyMSiYh-45" target="VGA2arO_mNmVDDyMSiYh-47">
          <mxGeometry relative="1" as="geometry" />
        </mxCell>
        <mxCell id="VGA2arO_mNmVDDyMSiYh-50" style="edgeStyle=orthogonalEdgeStyle;rounded=0;orthogonalLoop=1;jettySize=auto;html=1;entryX=0.5;entryY=0;entryDx=0;entryDy=0;" edge="1" parent="1" source="VGA2arO_mNmVDDyMSiYh-47" target="VGA2arO_mNmVDDyMSiYh-49">
          <mxGeometry relative="1" as="geometry" />
        </mxCell>
      </root>
    </mxGraphModel>
  </diagram>
</mxfile>
